<svg xmlns="http://www.w3.org/2000/svg" viewBox="0 0 100 100"><path fill="#3792CF" d="M66.938 5.509H8.792a3.287 3.287 0 00-3.287 3.286v82.409a3.286 3.286 0 003.287 3.286h58.146a3.287 3.287 0 003.287-3.286V8.795a3.287 3.287 0 00-3.287-3.286z"/><g fill="#FEE36F"><circle cx="37.865" cy="38.034" r="20.73"/><ellipse cx="37.865" cy="38.034" rx="10.23" ry="20.729"/><path d="M23.782 22.828c3.698 3.426 8.645 5.523 14.083 5.523s10.386-2.097 14.083-5.523c-3.698-3.426-8.645-5.523-14.083-5.523s-10.385 2.097-14.083 5.523zm0 30.412c3.698-3.426 8.645-5.523 14.083-5.523s10.386 2.097 14.083 5.523c-3.698 3.426-8.645 5.523-14.083 5.523S27.48 56.666 23.782 53.24z"/></g><path fill="#F68C43" d="M91.039 27.755H70.225v44.491H91.04a3.455 3.455 0 003.455-3.455V31.209a3.455 3.455 0 00-3.456-3.454z"/><path fill="#6AC9CC" d="M70.225 72.245v7.752h13.483a3.455 3.455 0 003.455-3.455v-4.297H70.225z"/><path fill="#136296" d="M66.938 94.997H8.792A3.796 3.796 0 015 91.205V8.795a3.796 3.796 0 013.792-3.792h58.146a3.796 3.796 0 013.792 3.792v82.409a3.796 3.796 0 01-3.792 3.793zM8.792 6.015a2.784 2.784 0 00-2.781 2.781v82.409a2.785 2.785 0 002.781 2.781h58.146a2.784 2.784 0 002.781-2.781V8.795a2.785 2.785 0 00-2.781-2.781H8.792z"/><path fill="#136296" d="M37.865 59.268c-11.71 0-21.236-9.526-21.236-21.234S26.155 16.8 37.865 16.8s21.236 9.526 21.236 21.234-9.526 21.234-21.236 21.234zm0-41.457c-11.152 0-20.225 9.072-20.225 20.223s9.073 20.223 20.225 20.223S58.09 49.185 58.09 38.034s-9.073-20.223-20.225-20.223z"/><path fill="#136296" d="M58.596 38.54H17.135a.506.506 0 110-1.012h41.461a.506.506 0 110 1.012z"/><path fill="#136296" d="M37.865 59.268a.506.506 0 01-.506-.506V17.305a.506.506 0 111.012 0v41.457c0 .28-.226.506-.506.506z"/><path fill="#136296" d="M37.865 59.268c-5.92 0-10.735-9.526-10.735-21.234S31.945 16.8 37.865 16.8 48.6 26.326 48.6 38.034s-4.815 21.234-10.735 21.234zm0-41.457c-5.362 0-9.724 9.072-9.724 20.223s4.362 20.223 9.724 20.223 9.724-9.072 9.724-20.223-4.362-20.223-9.724-20.223z"/><path fill="#136296" d="M37.865 28.857a21.166 21.166 0 01-14.427-5.658.507.507 0 010-.742C27.376 18.809 32.5 16.8 37.865 16.8s10.489 2.009 14.427 5.658a.507.507 0 010 .742 21.17 21.17 0 01-14.427 5.657zm-13.328-6.029c3.692 3.239 8.403 5.017 13.328 5.017s9.636-1.778 13.328-5.017c-3.692-3.24-8.403-5.018-13.328-5.018s-9.636 1.779-13.328 5.018zm13.328 36.44a21.166 21.166 0 01-14.427-5.658.507.507 0 010-.742c3.938-3.648 9.062-5.658 14.427-5.658s10.489 2.009 14.427 5.658a.507.507 0 010 .742 21.166 21.166 0 01-14.427 5.658zM24.537 53.24c3.692 3.239 8.403 5.017 13.328 5.017s9.636-1.778 13.328-5.017c-3.692-3.24-8.403-5.017-13.328-5.017S28.229 50 24.537 53.24zm34.059 16.14H17.135a.506.506 0 110-1.012h41.461a.506.506 0 110 1.012z"/><path fill="#FFF" d="M18.904 79.491h-1.77a.506.506 0 110-1.012h1.77a.506.506 0 110 1.012zm34.474 0h-3.447a.506.506 0 110-1.012h3.447a.506.506 0 110 1.012zm-6.894 0h-3.447a.506.506 0 110-1.012h3.447a.506.506 0 110 1.012zm-6.895 0h-3.447a.506.506 0 110-1.012h3.447a.506.506 0 110 1.012zm-6.895 0h-3.447a.506.506 0 110-1.012h3.447a.506.506 0 110 1.012zm-6.895 0h-3.447a.506.506 0 110-1.012h3.447a.506.506 0 110 1.012zm32.797 0h-1.77a.506.506 0 110-1.012h1.77a.506.506 0 110 1.012zm25.112-38.254H70.225a.506.506 0 110-1.012h13.483a.506.506 0 110 1.012zm5.393-5.225H70.225a.506.506 0 110-1.012h18.876a.506.506 0 110 1.012zm0 22.246H70.225a.506.506 0 110-1.012h18.876a.506.506 0 110 1.012zm0 4.718H70.225a.506.506 0 110-1.012h18.876a.506.506 0 110 1.012z"/><path fill="#136296" d="M83.708 80.503H70.225a.506.506 0 01-.506-.506v-7.752c0-.279.226-.506.506-.506h16.938c.279 0 .506.226.506.506v4.297a3.965 3.965 0 01-3.961 3.961zM70.73 79.492h12.978a2.952 2.952 0 002.949-2.949v-3.792H70.73v6.741z"/><path fill="#136296" d="M91.039 72.751H70.225a.506.506 0 01-.506-.506v-44.49c0-.279.226-.506.506-.506H91.04a3.965 3.965 0 013.961 3.96V68.79a3.967 3.967 0 01-3.962 3.961zM70.73 71.74h20.309a2.952 2.952 0 002.949-2.949V31.209a2.952 2.952 0 00-2.949-2.949H70.73v43.48z"/></svg>